<svg height="24" width="24" viewBox="0 0 24 24" role="presentation" focusable="false" class="ccl-2608038983f5b413 ccl-24025c233c77af94 ccl-4475ede65a9c319d" xmlns="http://www.w3.org/2000/svg"><path d="M9.42247 5.75047C9.5781 5.88391 9.77869 5.95258 9.98317 5.94239C10.1892 5.95258 10.3911 5.88271 10.5469 5.74747C10.6915 5.61223 10.7692 5.42031 10.7598 5.22271C10.7692 5.02509 10.6915 4.83318 10.5469 4.69794C10.2184 4.43496 9.75109 4.43496 9.42247 4.69794C9.27705 4.83378 9.19938 5.02689 9.20957 5.2257C9.20028 5.42331 9.27794 5.61523 9.42247 5.75047Z"></path><path d="M9.31152 11.2116C9.33162 11.3192 9.43507 11.39 9.54243 11.37L10.4241 11.367C10.4889 11.3744 10.5539 11.355 10.6039 11.313C10.642 11.2632 10.66 11.2014 10.6549 11.139V6.90494C10.6615 6.84078 10.6435 6.77631 10.6039 6.72503C10.5527 6.68545 10.4883 6.66745 10.4241 6.67405H9.53942C9.47705 6.66925 9.41527 6.68725 9.3655 6.72503C9.32352 6.7751 9.30403 6.84018 9.31152 6.90494V11.139C9.30703 11.163 9.30703 11.1876 9.31152 11.2116Z"></path><path d="M0.345421 13.2622L1.22103 13.2592C1.2852 13.2656 1.34967 13.2478 1.40094 13.2082C1.44053 13.1568 1.45852 13.0924 1.45193 13.0282V11.0131C1.62165 11.1594 1.81806 11.2716 2.03067 11.343C2.26186 11.4236 2.50535 11.4641 2.75035 11.4629C3.11108 11.4713 3.46582 11.3664 3.76389 11.163C4.07215 10.9391 4.31384 10.6352 4.46257 10.2845C4.6428 9.86315 4.73065 9.40823 4.72046 8.95004C4.75434 8.31882 4.56992 7.6954 4.19869 7.18383C3.86164 6.75473 3.34048 6.51214 2.79532 6.53012C2.52184 6.53042 2.25106 6.5835 1.99768 6.68605C1.74999 6.78412 1.5236 6.92984 1.33198 7.11486L1.266 6.87497C1.24741 6.74993 1.13406 6.66146 1.00812 6.67406H0.342421C0.280057 6.66926 0.218281 6.68725 0.168505 6.72504C0.126517 6.77512 0.107029 6.84018 0.114529 6.90496V13.0222C0.107029 13.087 0.126517 13.152 0.168505 13.2022C0.217681 13.2438 0.280957 13.265 0.345421 13.2622ZM2.36351 10.4554L2.36051 10.4584C2.04266 10.4596 1.7308 10.3714 1.46092 10.2035V7.78956C1.7329 7.62673 2.04356 7.54097 2.36051 7.54067C2.65918 7.51668 2.94885 7.64952 3.12518 7.89151C3.31049 8.23156 3.39386 8.61779 3.36507 9.00401C3.39356 9.38663 3.30899 9.76931 3.12218 10.1045C2.94645 10.3441 2.65978 10.4766 2.36351 10.4554Z"></path><path d="M5.85987 11.3667C5.75251 11.3869 5.64905 11.3161 5.62896 11.2085C5.62446 11.1845 5.62446 11.1599 5.62896 11.1359V6.90477C5.62147 6.83999 5.64096 6.77493 5.68294 6.72485C5.73271 6.68706 5.79449 6.66908 5.85687 6.67388H6.51957C6.64551 6.66128 6.75886 6.74974 6.77745 6.87478L6.8974 7.36657C7.0944 7.13596 7.3298 6.94106 7.59308 6.79082C7.80778 6.67836 8.04647 6.6199 8.28877 6.6199H8.41771C8.48278 6.6142 8.54786 6.63219 8.60064 6.67088C8.64261 6.72095 8.6621 6.78602 8.6546 6.85079V7.62445C8.6597 7.68682 8.64171 7.74859 8.60362 7.79836C8.55355 7.84035 8.48848 7.85984 8.42371 7.85234H8.0009C7.82758 7.85594 7.65485 7.87603 7.48513 7.91231C7.30821 7.945 7.13549 7.99628 6.96936 8.06524V11.1389C6.97416 11.2013 6.95616 11.2631 6.91839 11.3127C6.86831 11.3547 6.80324 11.3743 6.73847 11.3667H5.85987Z"></path><path d="M12.0262 11.3669C11.9189 11.387 11.8153 11.3162 11.7953 11.2086C11.7909 11.1846 11.7909 11.16 11.7953 11.136V6.9049C11.7879 6.84012 11.8073 6.77505 11.8493 6.72498C11.8991 6.68719 11.9608 6.6692 12.0232 6.674H12.6859C12.8118 6.6614 12.9252 6.74987 12.9438 6.87491L13.0187 7.1238C13.2916 6.93578 13.5867 6.78285 13.8974 6.668C14.1538 6.57864 14.4233 6.53216 14.695 6.53006C15.1676 6.48959 15.6216 6.72258 15.8645 7.1298C16.1382 6.94148 16.4357 6.79034 16.749 6.67999C17.0255 6.58794 17.3152 6.54146 17.6067 6.54206C17.975 6.51986 18.3359 6.65001 18.6052 6.90189C18.8535 7.17417 18.9813 7.53551 18.9591 7.90344V11.139C18.9639 11.2014 18.9459 11.2632 18.9081 11.3129C18.858 11.3549 18.793 11.3744 18.7282 11.3669H17.8556C17.7483 11.387 17.6447 11.3162 17.6247 11.2086C17.6202 11.1846 17.6202 11.16 17.6247 11.136V8.18532C17.6247 7.76761 17.4378 7.5586 17.0639 7.5586C16.7154 7.5625 16.3721 7.64466 16.0594 7.79849V11.139C16.0644 11.2014 16.0466 11.2632 16.0084 11.3129C15.9584 11.3549 15.8933 11.3744 15.8285 11.3669H14.9469C14.8396 11.387 14.736 11.3162 14.716 11.2086C14.7116 11.1846 14.7116 11.16 14.716 11.136V8.18532C14.716 7.76761 14.5292 7.5586 14.1552 7.5586C13.8025 7.5607 13.4554 7.64616 13.1417 7.80749V11.136C13.1465 11.1984 13.1285 11.2602 13.0907 11.3099C13.0407 11.3519 12.9756 11.3714 12.9108 11.3639L12.0262 11.3669Z"></path><path d="M20.4129 10.8784C20.886 11.3207 21.5208 11.5474 22.167 11.505C22.6558 11.5134 23.1417 11.431 23.6004 11.2621C23.6634 11.2435 23.7197 11.2073 23.7623 11.1572C23.7957 11.0936 23.8101 11.022 23.8043 10.9504V10.5275C23.8043 10.3856 23.7525 10.3146 23.6484 10.3146H23.5494C23.3264 10.3748 23.1003 10.4231 22.8718 10.4585C22.7056 10.4804 22.5383 10.4915 22.3709 10.4915C22.0288 10.5176 21.6882 10.4231 21.4084 10.2246C21.1721 9.99192 21.0383 9.67463 21.0365 9.34307C21.331 9.41436 21.6333 9.44855 21.9362 9.44495C22.4705 9.47976 23.0034 9.35675 23.4684 9.09113C23.8139 8.85934 24.0122 8.46292 23.9902 8.0476C24.0088 7.62329 23.8307 7.21397 23.5074 6.9381C23.1255 6.64273 22.6492 6.49549 22.167 6.52428C21.5152 6.48741 20.8792 6.73599 20.4249 7.20498C19.9888 7.72854 19.7699 8.39934 19.8131 9.07913C19.7639 9.73499 19.9802 10.383 20.4129 10.8784ZM22.5479 8.47341C22.3392 8.58466 22.1032 8.63444 21.8672 8.61735H21.8612C21.5886 8.61885 21.3164 8.59366 21.0485 8.54239C21.1407 7.81881 21.4812 7.45686 22.0712 7.45686C22.5308 7.45686 22.7608 7.64968 22.7608 8.03561C22.7722 8.20893 22.6912 8.37536 22.5479 8.47341Z"></path><path d="M21.6845 16.5335C19.0577 18.4705 15.2495 19.499 11.9719 19.499C7.59209 19.5224 3.361 17.9113 0.10626 14.9801C-0.139633 14.7582 0.0792717 14.4553 0.37614 14.6263C3.99191 16.6909 8.08417 17.7751 12.2478 17.7719C15.3547 17.7554 18.4281 17.1265 21.2918 15.9217C21.7475 15.7328 22.1194 16.2006 21.6845 16.5335Z"></path><path d="M19.7236 15.1994C20.5722 15.0974 22.4554 14.8726 22.7913 15.3013C23.1107 15.7126 22.4233 17.44 22.0967 18.261L22.0835 18.294C21.9876 18.5339 22.1945 18.6299 22.4104 18.4499C23.8348 17.2715 24.1946 14.8036 23.9097 14.4497C23.6249 14.0959 21.157 13.79 19.6576 14.8456C19.4237 15.0074 19.4657 15.2293 19.7236 15.1994Z"></path></svg>