<svg xmlns="http://www.w3.org/2000/svg" viewBox="0 0 48 48" width="48" height="48" style="width: 100%; height: 100%; transform: translate3d(0px, 0px, 0px);" focusable="false" preserveAspectRatio="xMidYMid meet"><defs><clipPath id="__lottie_element_37"><rect width="48" height="48" x="0" y="0"></rect></clipPath><clipPath id="__lottie_element_39"><path d="M0,0 L960,0 L960,960 L0,960z"></path></clipPath><clipPath id="__lottie_element_51"><path fill="#ffffff" clip-rule="nonzero" d=" M541.25,234.75 C541.25,235.75 461.5,290.5 461.5,290.5 C461.5,290.5 695.25,470.25 695.25,470.25 C695.25,470.25 739,421 739,421 C739,421 541.25,233.75 541.25,234.75" fill-opacity="1"></path></clipPath><clipPath id="__lottie_element_61"><path fill="#ffffff" clip-rule="nonzero" d=" M5.320000171661377,-29.694000244140625 C5.320000171661377,-29.694000244140625 5.320000171661377,-12.201000213623047 5.320000171661377,-12.201000213623047 C5.320000171661377,-12.201000213623047 36.5359992980957,-12.201000213623047 36.5359992980957,-12.201000213623047 C36.5359992980957,-12.201000213623047 36.5359992980957,-29.694000244140625 36.5359992980957,-29.694000244140625 C36.5359992980957,-29.694000244140625 5.320000171661377,-29.694000244140625 5.320000171661377,-29.694000244140625" fill-opacity="1"></path></clipPath><clipPath id="__lottie_element_70"><path fill="#ffffff" clip-rule="nonzero" d=" M-246.31199645996094,-311.1499938964844 C-246.31199645996094,-311.1499938964844 -246.31199645996094,17.702999114990234 -246.31199645996094,17.702999114990234 C-246.31199645996094,17.702999114990234 165.68800354003906,17.702999114990234 165.68800354003906,17.702999114990234 C165.68800354003906,17.702999114990234 165.68800354003906,-311.1499938964844 165.68800354003906,-311.1499938964844 C165.68800354003906,-311.1499938964844 -246.31199645996094,-311.1499938964844 -246.31199645996094,-311.1499938964844" fill-opacity="1"></path></clipPath><clipPath id="__lottie_element_78"><path fill="#ffffff" clip-rule="nonzero" d=" M-246.31199645996094,-311.1499938964844 C-246.31199645996094,-311.1499938964844 -246.31199645996094,17.702999114990234 -246.31199645996094,17.702999114990234 C-246.31199645996094,17.702999114990234 165.68800354003906,17.702999114990234 165.68800354003906,17.702999114990234 C165.68800354003906,17.702999114990234 165.68800354003906,-311.1499938964844 165.68800354003906,-311.1499938964844 C165.68800354003906,-311.1499938964844 -246.31199645996094,-311.1499938964844 -246.31199645996094,-311.1499938964844" fill-opacity="1"></path></clipPath></defs><g clip-path="url(#__lottie_element_37)"><g clip-path="url(#__lottie_element_39)" style="display: block;" transform="matrix(0.05000000074505806,0,0,0.05000000074505806,0,0)" opacity="1"><g style="display: block;" transform="matrix(1,0,0,1,480,480)" opacity="1"><g opacity="1" transform="matrix(1,0,0,1,0,0)"><path fill="rgb(234,234,234)" fill-opacity="1" d=" M0,-480 C264.9119873046875,-480 480,-264.9119873046875 480,0 C480,264.9119873046875 264.9119873046875,480 0,480 C-264.9119873046875,480 -480,264.9119873046875 -480,0 C-480,-264.9119873046875 -264.9119873046875,-480 0,-480z"></path><path stroke-linecap="butt" stroke-linejoin="miter" fill-opacity="0" stroke-miterlimit="4" stroke="rgb(0,204,190)" stroke-opacity="1" stroke-width="0" d=" M0,-480 C264.9119873046875,-480 480,-264.9119873046875 480,0 C480,264.9119873046875 264.9119873046875,480 0,480 C-264.9119873046875,480 -480,264.9119873046875 -480,0 C-480,-264.9119873046875 -264.9119873046875,-480 0,-480z"></path></g></g><g clip-path="url(#__lottie_element_78)" style="display: block;" transform="matrix(0.8763066530227661,-0.4817536771297455,0.4817536771297455,0.8763066530227661,188.9300994873047,754.0120239257812)" opacity="1"><g opacity="1" transform="matrix(1,0,0,1,-14.696999549865723,15.70300006866455)"><path stroke-linecap="butt" stroke-linejoin="miter" fill-opacity="0" stroke-miterlimit="1" stroke="rgb(145,167,167)" stroke-opacity="1" stroke-width="50" d=" M0,-110 C60.70899963378906,-110 110,-60.70899963378906 110,0 C110,60.70899963378906 60.70899963378906,110 0,110 C-60.70899963378906,110 -110,60.70899963378906 -110,0 C-110,-60.70899963378906 -60.70899963378906,-110 0,-110z"></path></g></g><g style="display: block;" transform="matrix(1,0,0,1,198.31300354003906,759.1500244140625)" opacity="1"><g opacity="1" transform="matrix(1,0,0,1,-14.696999549865723,15.70300006866455)"><path stroke-linecap="butt" stroke-linejoin="miter" fill-opacity="0" stroke-miterlimit="1" stroke="rgb(69,0,100)" stroke-opacity="1" stroke-width="50" d=" M0,-160 C88.30400085449219,-160 160,-88.30400085449219 160,0 C160,88.30400085449219 88.30400085449219,160 0,160 C-88.30400085449219,160 -160,88.30400085449219 -160,0 C-160,-88.30400085449219 -88.30400085449219,-160 0,-160z"></path></g></g><g style="display: block;" transform="matrix(1,0,0,1,480,480)" opacity="1"><g opacity="1" transform="matrix(1,0,0,1,0,0)"><path fill="rgb(69,0,100)" fill-opacity="1" d=" M-118.25,-96 C-118.25,-96 -189.78500366210938,-113.22000122070312 -221,-39.5 C-244.5,16 -197,67.25 -138.5,65.75 C-138.5,66.25 -3.5,60 -3.5,60 C-3.5,60 -35.30500030517578,145.66600036621094 -53,186.5 C-79,246.5 -6,276.5 18,211.5 C35.125999450683594,165.11900329589844 76,73.5 84.25,50.5 C89.5510025024414,35.72200012207031 100.73999786376953,16.97599983215332 78,-1.5 C54,-21 -118.25,-96 -118.25,-96z"></path></g></g><g style="display: block;" transform="matrix(0.8519349098205566,-0.5235283970832825,0.5235283970832825,0.8519349098205566,87.8829116821289,500.002685546875)" opacity="1"><g opacity="1" transform="matrix(1,0,0,1,0,0)"><path fill="rgb(69,0,100)" fill-opacity="1" d=" M245.25,302 C245.25,302 131.468994140625,362.56201171875 205.718994140625,393.06201171875 C207.781005859375,394 209.5,394.75 209.5,394.75 C209.5,394.75 264,416.75 264,416.75 C264,416.75 308.75,439 321.5,414.25 C334.25,389.5 317.75,372 310.75,364 C303.75,356 245.25,302 245.25,302z"></path></g></g><g clip-path="url(#__lottie_element_70)" style="display: block;" transform="matrix(0.8763066530227661,-0.4817536771297455,0.4817536771297455,0.8763066530227661,780.9301147460938,754.0120239257812)" opacity="1"><g opacity="1" transform="matrix(1,0,0,1,-14.696999549865723,15.70300006866455)"><path stroke-linecap="butt" stroke-linejoin="miter" fill-opacity="0" stroke-miterlimit="1" stroke="rgb(145,167,167)" stroke-opacity="1" stroke-width="50" d=" M0,-110 C60.70899963378906,-110 110,-60.70899963378906 110,0 C110,60.70899963378906 60.70899963378906,110 0,110 C-60.70899963378906,110 -110,60.70899963378906 -110,0 C-110,-60.70899963378906 -60.70899963378906,-110 0,-110z"></path></g></g><g style="display: block;" transform="matrix(1,0,0,1,790.31201171875,759.1500244140625)" opacity="1"><g opacity="1" transform="matrix(1,0,0,1,-14.696999549865723,15.70300006866455)"><path stroke-linecap="butt" stroke-linejoin="miter" fill-opacity="0" stroke-miterlimit="1" stroke="rgb(69,0,100)" stroke-opacity="1" stroke-width="50" d=" M0,-160 C88.30400085449219,-160 160,-88.30400085449219 160,0 C160,88.30400085449219 88.30400085449219,160 0,160 C-88.30400085449219,160 -160,88.30400085449219 -160,0 C-160,-88.30400085449219 -88.30400085449219,-160 0,-160z"></path></g></g><g style="display: block;" transform="matrix(18.75,0,0,18.75,480,510)" opacity="1"><g opacity="1" transform="matrix(1,0,0,1,0,0)"><path stroke-linecap="round" stroke-linejoin="round" fill-opacity="0" stroke="rgb(251,80,88)" stroke-opacity="1" stroke-width="2.5" d=" M1,15.399999618530273 C1,15.399999618530273 -15.600000381469727,14.119999885559082 -15.600000381469727,14.119999885559082 C-15.600000381469727,14.119999885559082 -7.199999809265137,1.399999976158142 -7.199999809265137,1.399999976158142"></path></g></g><g style="display: block;" transform="matrix(1,0,0,1,478,483)" opacity="1"><g opacity="1" transform="matrix(1,0,0,1,0,0)"><path fill="rgb(145,167,167)" fill-opacity="1" d=" M-61.03099822998047,-294 C-61.03099822998047,-294 -62.051998138427734,-289.5119934082031 -69.28199768066406,-290.25 C-115.78199768066406,-295 -211.625,-79.71900177001953 -211.625,-79.68800354003906 C-211.625,-79.65699768066406 -21.30900001525879,-79.875 -21.30900001525879,-79.875 C-21.30900001525879,-79.875 51.25,-251.75 51.25,-251.75 C51.25,-251.75 -61.03099822998047,-294 -61.03099822998047,-294z"></path></g></g><g style="display: block;" transform="matrix(15.46875,0,0,15.46875,414.4496154785156,352.7896728515625)" opacity="1"><g opacity="1" transform="matrix(1,0,0,1,7.244999885559082,-14.244000434875488)"><path fill="rgb(255,153,102)" fill-opacity="1" d=" M0,-5.071499824523926 C2.7989606857299805,-5.071499824523926 5.071499824523926,-2.7989606857299805 5.071499824523926,0 C5.071499824523926,2.7989606857299805 2.7989606857299805,5.071499824523926 0,5.071499824523926 C-2.7989606857299805,5.071499824523926 -5.071499824523926,2.7989606857299805 -5.071499824523926,0 C-5.071499824523926,-2.7989606857299805 -2.7989606857299805,-5.071499824523926 0,-5.071499824523926z"></path></g><g opacity="1" transform="matrix(1,0,0,1,0,0)"><path fill="rgb(145,167,167)" fill-opacity="1" d=" M0.25999999046325684,-12.947999954223633 C0.25999999046325684,-12.947999954223633 -1.3559999465942383,-6.9679999351501465 -1.3559999465942383,-6.9679999351501465 C-1.3559999465942383,-6.9679999351501465 6.886000156402588,-3.4130001068115234 6.886000156402588,-3.4130001068115234 C6.886000156402588,-3.4130001068115234 12.380999565124512,-8.100000381469727 12.380999565124512,-8.100000381469727 C12.380999565124512,-8.100000381469727 0.25999999046325684,-12.947999954223633 0.25999999046325684,-12.947999954223633z"></path><path stroke-linecap="butt" stroke-linejoin="miter" fill-opacity="0" stroke-miterlimit="4" stroke="rgb(0,135,138)" stroke-opacity="1" stroke-width="0" d=" M0.25999999046325684,-12.947999954223633 C0.25999999046325684,-12.947999954223633 -1.3559999465942383,-6.9679999351501465 -1.3559999465942383,-6.9679999351501465 C-1.3559999465942383,-6.9679999351501465 6.886000156402588,-3.4130001068115234 6.886000156402588,-3.4130001068115234 C6.886000156402588,-3.4130001068115234 12.380999565124512,-8.100000381469727 12.380999565124512,-8.100000381469727 C12.380999565124512,-8.100000381469727 0.25999999046325684,-12.947999954223633 0.25999999046325684,-12.947999954223633z"></path></g></g><g clip-path="url(#__lottie_element_61)" style="display: block;" transform="matrix(14.941664695739746,4.003607273101807,-4.003607273101807,14.941664695739746,107.79367065429688,194.90701293945312)" opacity="1"><g opacity="1" transform="matrix(1,0,0,1,24.858999252319336,-12.279000282287598)"><path fill="rgb(156,0,109)" fill-opacity="1" d=" M0,-7 C3.863300085067749,-7 7,-3.863300085067749 7,0 C7,3.863300085067749 3.863300085067749,7 0,7 C-3.863300085067749,7 -7,3.863300085067749 -7,0 C-7,-3.863300085067749 -3.863300085067749,-7 0,-7z"></path></g></g><g style="display: block;" transform="matrix(18.75,0,0,18.75,480,510)" opacity="1"><g opacity="1" transform="matrix(1,0,0,1,0,0)"><path stroke-linecap="round" stroke-linejoin="round" fill-opacity="0" stroke="rgb(251,80,88)" stroke-opacity="1" stroke-width="2.5" d=" M10,1.399999976158142 C10,1.399999976158142 -7.199999809265137,1.399999976158142 -7.199999809265137,1.399999976158142 C-7.199999809265137,1.399999976158142 -1.1330000162124634,15.199999809265137 -1.1330000162124634,15.199999809265137 C-1.1330000162124634,15.199999809265137 10,1.399999976158142 10,1.399999976158142z"></path></g></g><g style="display: block;" transform="matrix(9.375,0,0,9.375,431.1875,510)" opacity="1"><g opacity="1" transform="matrix(1,0,0,1,4.111999988555908,30.11199951171875)"><path fill="rgb(145,167,167)" fill-opacity="1" d=" M0,-8 C4.415200233459473,-8 8,-4.415200233459473 8,0 C8,4.415200233459473 4.415200233459473,8 0,8 C-4.415200233459473,8 -8,4.415200233459473 -8,0 C-8,-4.415200233459473 -4.415200233459473,-8 0,-8z"></path><path stroke-linecap="butt" stroke-linejoin="miter" fill-opacity="0" stroke-miterlimit="4" stroke="rgb(69,0,100)" stroke-opacity="1" stroke-width="0" d=" M0,-8 C4.415200233459473,-8 8,-4.415200233459473 8,0 C8,4.415200233459473 4.415200233459473,8 0,8 C-4.415200233459473,8 -8,4.415200233459473 -8,0 C-8,-4.415200233459473 -4.415200233459473,-8 0,-8z"></path></g></g><g style="display: block;" transform="matrix(0.9972391724586487,-0.07425621151924133,0.07425621151924133,0.9972391724586487,359.4681091308594,303.12677001953125)" opacity="1"><g opacity="1" transform="matrix(0.8191520571708679,0.5735764503479004,-0.5735764503479004,0.8191520571708679,0,0)"><path fill="rgb(0,126,138)" fill-opacity="1" d=" M-30,-130 C-30,-130 -30,160 -30,160 C-30,160 -320,160 -320,160 C-320,160 -320,-130 -320,-130 C-320,-130 -30,-130 -30,-130z"></path></g></g><g clip-path="url(#__lottie_element_51)" style="display: block;" transform="matrix(1,0,0,1,0,0)" opacity="1"><rect width="960" height="960" fill="#91a7a7"></rect></g><g style="display: block;" transform="matrix(0.7071067690849304,-0.7071067690849304,0.7071067690849304,0.7071067690849304,726.5398559570312,495.80938720703125)" opacity="1"><g opacity="1" transform="matrix(1,0,0,1,25.917999267578125,-11.071000099182129)"><path fill="rgb(255,153,102)" fill-opacity="1" d=" M50,-20 C50,-20 50,20 50,20 C50,36.55699920654297 36.55699920654297,50 20,50 C20,50 -20,50 -20,50 C-36.55699920654297,50 -50,36.55699920654297 -50,20 C-50,20 -50,-20 -50,-20 C-50,-36.55699920654297 -36.55699920654297,-50 -20,-50 C-20,-50 20,-50 20,-50 C36.55699920654297,-50 50,-36.55699920654297 50,-20z"></path></g></g><g style="display: block;" transform="matrix(18.75,0,0,18.75,480,510)" opacity="1"><g opacity="1" transform="matrix(1,0,0,1,0,0)"><path stroke-linecap="round" stroke-linejoin="round" fill-opacity="0" stroke="rgb(251,80,88)" stroke-opacity="1" stroke-width="2.5" d=" M15.746999740600586,14.079999923706055 C15.746999740600586,14.079999923706055 9.600000381469727,-2.2119998931884766 9.600000381469727,-2.2119998931884766 C9.600000381469727,-2.2119998931884766 12.666999816894531,-2.4579999446868896 12.666999816894531,-2.4579999446868896"></path></g></g><g style="display: block;" transform="matrix(0.9905500411987305,-0.13669505715370178,0.13669505715370178,0.9905500411987305,239.19198608398438,556.0859985351562)" opacity="1"><g opacity="1" transform="matrix(1,0,0,1,0,0)"><path fill="rgb(0,126,138)" fill-opacity="1" d=" M245.25,302 C245.25,302 131.468994140625,362.56201171875 205.718994140625,393.06201171875 C207.781005859375,394 209.5,394.75 209.5,394.75 C209.5,394.75 264,416.75 264,416.75 C264,416.75 308.75,439 321.5,414.25 C334.25,389.5 317.75,372 310.75,364 C303.75,356 245.25,302 245.25,302z"></path></g></g><g style="display: block;" transform="matrix(1,0,0,1,480,480)" opacity="1"><g opacity="1" transform="matrix(1,0,0,1,-0.1509999930858612,0.07000000029802322)"><path fill="rgb(0,126,138)" fill-opacity="1" d=" M-21.29800033569336,-79.625 C-21.29800033569336,-79.625 -211.5659942626953,-80.35800170898438 -211.8159942626953,-79.60800170898438 C-268.0989990234375,4.679999828338623 -181.95199584960938,68.15899658203125 -181.95199584960938,68.15899658203125 C-181.95199584960938,68.15899658203125 -62.5099983215332,197.78599548339844 -62.5099983215332,197.78599548339844 C-62.5099983215332,197.78599548339844 -16.035999298095703,403.17999267578125 -15.694000244140625,403.2860107421875 C-2.9739999771118164,457.42999267578125 67.1510009765625,450.42999267578125 57.89799880981445,384.1669921875 C53.1510009765625,341.17999267578125 42.7760009765625,199.17999267578125 37.9109992980957,172.10000610351562 C34.2760009765625,144.92999267578125 27.908000946044922,137.3990020751953 27.908000946044922,137.3990020751953 C27.908000946044922,137.3990020751953 -51.470001220703125,-6.704999923706055 -51.470001220703125,-6.704999923706055 C-51.470001220703125,-6.704999923706055 -21.29800033569336,-79.625 -21.29800033569336,-79.625z"></path></g></g></g></g></svg>