<svg width="55" height="55" viewBox="0 0 96 96" fill="none" xmlns="http://www.w3.org/2000/svg">
<path fill-rule="evenodd" clip-rule="evenodd" d="M18.5449 18.5455C10.7178 26.6962 6.65474 36.3411 6.54492 48C6.54492 59.4568 10.608 69.2302 18.5449 77.4545C19.4293 78.0515 20.1618 78.7291 20.7267 79.6364C28.5449 86.0866 37.5672 89.4545 47.9995 89.4545C58.4317 89.4545 67.4727 86.0866 75.2722 79.6364C75.8558 78.7291 76.5883 78.0515 77.454 77.4545C85.4096 69.2302 89.454 59.4568 89.454 48C89.3804 36.3411 85.336 26.6962 77.454 18.5455C69.2297 10.5899 59.4563 6.54546 47.9995 6.54546C36.5789 6.54546 26.8242 10.5899 18.5449 18.5455Z" fill="#00CCBE"/>
<path fill-rule="evenodd" clip-rule="evenodd" d="M23.6379 32.7273L18.5449 71.7979L70.1792 78.5455L75.2722 39.4748L23.6379 32.7273Z" fill="white"/>
<path fill-rule="evenodd" clip-rule="evenodd" d="M25.6299 19.6364L23.4531 33.2727L75.2713 39.8182L77.4531 26.4188L25.6299 19.6364Z" fill="#007E8A"/>
<path fill-rule="evenodd" clip-rule="evenodd" d="M30.685 17.0611L29.4757 26.0759C29.3997 26.6289 29.5333 27.1267 29.8788 27.5691C30.2243 28.0116 30.685 28.2693 31.2608 28.3434C31.8366 28.4175 32.3549 28.2881 32.8156 27.9563C33.3154 27.5879 33.6033 27.1267 33.6793 26.5736L34.8885 17.6142C34.9657 17.0611 34.831 16.5634 34.4855 16.1209C34.102 15.6409 33.6217 15.3644 33.0459 15.2914C32.4701 15.2172 31.9518 15.3644 31.4911 15.7338C31.0305 16.0656 30.7621 16.5081 30.685 17.0611ZM59.5253 19.3384C59.1832 18.8959 58.7271 18.6371 58.157 18.5641C57.5868 18.49 57.0737 18.6371 56.6176 19.0065C56.1615 19.3384 55.8958 19.7808 55.8194 20.3338L54.5651 29.3486C54.4887 29.9017 54.6415 30.3994 55.0212 30.8419C55.3633 31.2843 55.8194 31.542 56.3895 31.6161C56.9597 31.6902 57.4728 31.5608 57.9289 31.229C58.385 30.8607 58.6701 30.3994 58.7841 29.8464L59.9814 20.8869C60.0578 20.3338 59.905 19.8173 59.5253 19.3384ZM68.5603 20.0974C68.1042 20.4293 67.8385 20.8717 67.7621 21.4248L66.5647 30.4395C66.4894 30.9926 66.6411 31.4903 67.0208 31.9328C67.3629 32.3752 67.8191 32.6329 68.3893 32.707C68.9594 32.7811 69.4726 32.6517 69.9287 32.3199C70.4236 31.9516 70.7087 31.4903 70.784 30.9373L71.9813 21.9778C72.0577 21.3871 71.9061 20.8717 71.5252 20.4293C71.1831 19.9868 70.727 19.728 70.1568 19.655C69.5866 19.5809 69.0552 19.728 68.5603 20.0974ZM46.4311 17.1565C46.0867 16.7141 45.6275 16.4553 45.0535 16.3823C44.4795 16.3082 43.9629 16.4553 43.5037 16.8247C43.0067 17.1565 42.738 17.599 42.7002 18.152L41.4948 27.1668C41.38 27.7198 41.5143 28.2176 41.8966 28.66C42.241 29.1025 42.7002 29.3602 43.2741 29.4343C43.8481 29.5084 44.3843 29.379 44.8813 29.0472C45.3405 28.6788 45.608 28.2176 45.6849 27.6645L46.8903 18.7051C46.9672 18.152 46.8145 17.6355 46.4311 17.1565Z" fill="white"/>
<path fill-rule="evenodd" clip-rule="evenodd" d="M43.1156 42.5455L43.6351 38.655L39.791 38.1818L39.2715 42.0197L43.1156 42.5455Z" fill="#00CCBE"/>
<path fill-rule="evenodd" clip-rule="evenodd" d="M46.9082 43.1632L50.7987 43.6364L51.2718 39.7985L47.4339 39.2727L46.9082 43.1632Z" fill="#00CCBE"/>
<path fill-rule="evenodd" clip-rule="evenodd" d="M57.8168 40.8894L53.9789 40.3636L53.4531 44.2015L57.3436 44.7273L57.8168 40.8894Z" fill="#00CCBE"/>
<path fill-rule="evenodd" clip-rule="evenodd" d="M63.2718 41.9277L59.3757 41.4545L58.9082 45.2924L62.7524 45.8182L63.2718 41.9277Z" fill="#00CCBE"/>
<path fill-rule="evenodd" clip-rule="evenodd" d="M69.8168 41.9277L65.9726 41.4545L65.4531 45.2924L69.2973 45.8182L69.8168 41.9277Z" fill="#00CCBE"/>
<path fill-rule="evenodd" clip-rule="evenodd" d="M30.5453 44.1558L26.6548 43.6364L26.1816 47.4805L30.0195 48L30.5453 44.1558Z" fill="#00CCBE"/>
<path fill-rule="evenodd" clip-rule="evenodd" d="M33.1997 44.7273L32.7266 48.6177L36.5645 49.0909L37.0902 45.2004L33.1997 44.7273Z" fill="#00CCBE"/>
<path fill-rule="evenodd" clip-rule="evenodd" d="M43.6351 46.2913L39.791 45.8182L39.2715 49.6561L43.1156 50.1818L43.6351 46.2913Z" fill="#00CCBE"/>
<path fill-rule="evenodd" clip-rule="evenodd" d="M50.182 47.4286L46.3441 46.9091L45.8184 50.7532L49.7088 51.2727L50.182 47.4286Z" fill="#00CCBE"/>
<path fill-rule="evenodd" clip-rule="evenodd" d="M56.7269 47.3823L52.889 46.9091L52.3633 50.747L56.2538 51.2727L56.7269 47.3823Z" fill="#00CCBE"/>
<path fill-rule="evenodd" clip-rule="evenodd" d="M63.2718 48.5195L59.3757 48L58.9082 51.8442L62.7524 52.3636L63.2718 48.5195Z" fill="#00CCBE"/>
<path fill-rule="evenodd" clip-rule="evenodd" d="M69.8168 49.6104L65.9726 49.0909L65.4531 52.9351L69.2973 53.4545L69.8168 49.6104Z" fill="#00CCBE"/>
<path fill-rule="evenodd" clip-rule="evenodd" d="M29.4535 51.7922L25.563 51.2727L25.0898 55.1169L28.9277 55.6364L29.4535 51.7922Z" fill="#00CCBE"/>
<path fill-rule="evenodd" clip-rule="evenodd" d="M32.1099 52.3636L31.6367 56.2541L35.4746 56.7273L36.0004 52.8368L32.1099 52.3636Z" fill="#00CCBE"/>
<path fill-rule="evenodd" clip-rule="evenodd" d="M42.5453 52.8831L38.7011 52.3636L38.1816 56.2078L42.0258 56.7273L42.5453 52.8831Z" fill="#00CCBE"/>
<path fill-rule="evenodd" clip-rule="evenodd" d="M49.0902 53.974L45.2523 53.4545L44.7266 57.2987L48.617 57.8182L49.0902 53.974Z" fill="#00CCBE"/>
<path fill-rule="evenodd" clip-rule="evenodd" d="M55.6351 55.0186L51.7972 54.5455L51.2715 58.4359L55.162 58.9091L55.6351 55.0186Z" fill="#00CCBE"/>
<path fill-rule="evenodd" clip-rule="evenodd" d="M62.182 56.1558L58.2859 55.6364L57.8184 59.4805L61.6625 60L62.182 56.1558Z" fill="#00CCBE"/>
<path fill-rule="evenodd" clip-rule="evenodd" d="M68.7269 56.1558L64.8828 55.6364L64.3633 59.4805L68.2074 60L68.7269 56.1558Z" fill="#00CCBE"/>
<path fill-rule="evenodd" clip-rule="evenodd" d="M28.3636 58.3377L24.4732 57.8182L24 61.6623L27.8379 62.1818L28.3636 58.3377Z" fill="#00CCBE"/>
<path fill-rule="evenodd" clip-rule="evenodd" d="M31.0181 58.9091L30.5449 62.7996L34.3828 63.2727L34.9086 59.3823L31.0181 58.9091Z" fill="#00CCBE"/>
<path fill-rule="evenodd" clip-rule="evenodd" d="M41.4535 60.5195L37.6093 60L37.0898 63.8442L40.934 64.3636L41.4535 60.5195Z" fill="#00CCBE"/>
<path fill-rule="evenodd" clip-rule="evenodd" d="M48.0004 61.6104L44.1625 61.0909L43.6367 64.9351L47.5272 65.4545L48.0004 61.6104Z" fill="#00CCBE"/>
<path fill-rule="evenodd" clip-rule="evenodd" d="M54.5453 61.5641L50.7074 61.0909L50.1816 64.9814L54.0721 65.4545L54.5453 61.5641Z" fill="#00CCBE"/>
<path fill-rule="evenodd" clip-rule="evenodd" d="M61.0902 62.7013L57.246 62.1818L56.7266 66.026L60.5707 66.5455L61.0902 62.7013Z" fill="#00CCBE"/>
<path fill-rule="evenodd" clip-rule="evenodd" d="M67.6351 63.7922L63.791 63.2727L63.2715 67.1169L67.1156 67.6364L67.6351 63.7922Z" fill="#00CCBE"/>
<path fill-rule="evenodd" clip-rule="evenodd" d="M27.2718 65.974L23.3814 65.4545L22.9082 69.2987L26.7461 69.8182L27.2718 65.974Z" fill="#00CCBE"/>
<path fill-rule="evenodd" clip-rule="evenodd" d="M33.8168 65.9221L29.9263 65.4545L29.4531 69.2987L33.291 69.8182L33.8168 65.9221Z" fill="#00CCBE"/>
<path fill-rule="evenodd" clip-rule="evenodd" d="M40.3636 67.0186L36.5195 66.5455L36 70.3833L39.8442 70.9091L40.3636 67.0186Z" fill="#00CCBE"/>
<path fill-rule="evenodd" clip-rule="evenodd" d="M46.9086 68.1558L43.0644 67.6364L42.5449 71.4805L46.3891 72L46.9086 68.1558Z" fill="#00CCBE"/>
<path fill-rule="evenodd" clip-rule="evenodd" d="M53.4535 69.2004L49.6156 68.7273L49.0898 72.5652L52.9803 73.0909L53.4535 69.2004Z" fill="#00CCBE"/>
</svg>
