<svg width="55" height="55" viewBox="0 0 96 96" fill="none" xmlns="http://www.w3.org/2000/svg">
<path d="M77.3121 21.9601C69.2175 13.8655 59.4467 9.81821 47.9995 9.81821C36.5523 9.81821 26.7814 13.8655 18.6868 21.9601C10.5922 30.0547 6.54492 39.8256 6.54492 51.2728C6.54492 62.7199 10.5922 72.4908 18.6868 80.5854C26.7814 88.68 36.5523 92.7273 47.9995 92.7273C59.4467 92.7273 69.2175 88.68 77.3121 80.5854C85.4067 72.4908 89.454 62.7199 89.454 51.2728C89.454 39.8256 85.4067 30.0547 77.3121 21.9601Z" fill="#00CCBE"/>
<path d="M30.7761 66.5062C32.6168 65.7903 33.5372 64.9211 33.5372 63.8984C33.5372 62.8612 32.6168 61.9773 30.7761 61.2469C28.9353 60.531 26.7147 60.1731 24.1143 60.1731C21.5139 60.1731 19.2933 60.531 17.4525 61.2469C15.6118 61.9773 14.6914 62.8612 14.6914 63.8984C14.6914 64.9211 15.6118 65.7903 17.4525 66.5062C19.2933 67.222 21.5139 67.5799 24.1143 67.5799C26.7147 67.5799 28.9353 67.222 30.7761 66.5062Z" fill="#FA5058"/>
<path d="M33.5376 63.7889V60.1512H14.6699V63.7889H33.5376Z" fill="#FA5058"/>
<path d="M30.7765 62.7589C32.6172 62.0284 33.5376 61.1446 33.5376 60.1073C33.5376 59.0847 32.6172 58.2081 30.7765 57.4777C28.9357 56.7618 26.7152 56.4039 24.1147 56.4039C21.5143 56.4039 19.2864 56.7618 17.431 57.4777C15.5903 58.2081 14.6699 59.0847 14.6699 60.1073C14.6699 61.1446 15.5903 62.0284 17.431 62.7589C19.2864 63.4747 21.5143 63.8326 24.1147 63.8326C26.7152 63.8326 28.9357 63.4747 30.7765 62.7589Z" fill="#FABE00"/>
<path d="M30.7761 61.5317C32.6168 60.8159 33.5372 59.9466 33.5372 58.924C33.5372 57.8867 32.6168 57.0102 30.7761 56.2944C28.9353 55.5639 26.7147 55.1987 24.1143 55.1987C21.5139 55.1987 19.2933 55.5639 17.4525 56.2944C15.6118 57.0102 14.6914 57.8867 14.6914 58.924C14.6914 59.9466 15.6118 60.8159 17.4525 61.5317C19.2933 62.2476 21.5139 62.6055 24.1143 62.6055C26.7147 62.6055 28.9353 62.2476 30.7761 61.5317Z" fill="#FA5058"/>
<path d="M33.5376 58.8364V55.1987H14.6699V58.8364H33.5376Z" fill="#FA5058"/>
<path d="M30.7765 57.7845C32.6172 57.054 33.5376 56.1702 33.5376 55.1329C33.5376 54.1103 32.6172 53.241 30.7765 52.5252C28.9357 51.7947 26.7152 51.4295 24.1147 51.4295C21.4997 51.4295 19.2718 51.7947 17.431 52.5252C15.5903 53.241 14.6699 54.1103 14.6699 55.1329C14.6699 56.1702 15.5903 57.054 17.431 57.7845C19.2718 58.5295 21.4997 58.9021 24.1147 58.9021C26.7152 58.9021 28.9357 58.5295 30.7765 57.7845Z" fill="#FABE00"/>
<path d="M30.7761 56.6011C32.6168 55.8853 33.5372 55.016 33.5372 53.9934C33.5372 52.9561 32.6168 52.0796 30.7761 51.3638C28.9353 50.6333 26.7147 50.2681 24.1143 50.2681C21.5139 50.2681 19.2933 50.6333 17.4525 51.3638C15.6118 52.0796 14.6914 52.9561 14.6914 53.9934C14.6914 55.016 15.6118 55.8853 17.4525 56.6011C19.2933 57.3462 21.5139 57.7187 24.1143 57.7187C26.7147 57.7187 28.9353 57.3462 30.7761 56.6011Z" fill="#FA5058"/>
<path d="M33.5376 53.9057V50.2681H14.6699V53.9057H33.5376Z" fill="#FA5058"/>
<path d="M24.1147 46.5208C21.4997 46.5208 19.2718 46.8788 17.431 47.5946C15.5903 48.3105 14.6699 49.1943 14.6699 50.2462C14.6699 51.2542 15.5903 52.1234 17.431 52.8539C19.2718 53.5844 21.4997 53.9496 24.1147 53.9496C26.7152 53.9496 28.9357 53.5844 30.7765 52.8539C32.6172 52.1234 33.5376 51.2542 33.5376 50.2462C33.5376 49.1943 32.6172 48.3105 30.7765 47.5946C28.9357 46.8788 26.7152 46.5208 24.1147 46.5208Z" fill="#FABE00"/>
<path d="M24.1143 45.3813C21.5139 45.3813 19.2933 45.7392 17.4525 46.4551C15.6118 47.2001 14.6914 48.084 14.6914 49.1066C14.6914 50.1439 15.6118 51.0204 17.4525 51.7363C19.2933 52.4521 21.5139 52.81 24.1143 52.81C26.7147 52.81 28.9353 52.4521 30.7761 51.7363C32.6168 51.0204 33.5372 50.1439 33.5372 49.1066C33.5372 48.084 32.6168 47.2001 30.7761 46.4551C28.9353 45.7392 26.7147 45.3813 24.1143 45.3813Z" fill="#FA5058"/>
<path d="M33.5376 45.3594H14.6699V48.997H33.5376V45.3594Z" fill="#FA5058"/>
<path d="M14.6699 45.3375C14.6699 46.3601 15.5903 47.244 17.431 47.989C19.2864 48.7049 21.5143 49.0628 24.1147 49.0628C26.7152 49.0628 28.9357 48.7049 30.7765 47.989C32.6172 47.244 33.5376 46.3601 33.5376 45.3375C33.5376 44.3002 32.6172 43.4164 30.7765 42.6859C28.9357 41.9701 26.7152 41.6122 24.1147 41.6122C21.5143 41.6122 19.2864 41.9701 17.431 42.6859C15.5903 43.4164 14.6699 44.3002 14.6699 45.3375Z" fill="#FABE00"/>
<path d="M17.4525 46.8277C19.2933 47.5435 21.5139 47.9014 24.1143 47.9014C26.7147 47.9014 28.9353 47.5435 30.7761 46.8277C32.6168 46.1118 33.5372 45.2353 33.5372 44.198C33.5372 43.1754 32.6168 42.3061 30.7761 41.5903C28.9353 40.8452 26.7147 40.4727 24.1143 40.4727C21.5139 40.4727 19.2933 40.8452 17.4525 41.5903C15.6118 42.3061 14.6914 43.1754 14.6914 44.198C14.6914 45.2353 15.6118 46.1118 17.4525 46.8277Z" fill="#FA5058"/>
<path d="M14.6699 40.4727V44.1104H33.5376V40.4727H14.6699Z" fill="#FA5058"/>
<path d="M17.431 43.0804C19.2718 43.8109 21.4997 44.1761 24.1147 44.1761C26.7152 44.1761 28.9357 43.8109 30.7765 43.0804C32.6172 42.3353 33.5376 41.4515 33.5376 40.4288C33.5376 39.3916 32.6172 38.5151 30.7765 37.7992C28.9357 37.0687 26.7152 36.7035 24.1147 36.7035C21.4997 36.7035 19.2718 37.0687 17.431 37.7992C15.5903 38.5151 14.6699 39.3916 14.6699 40.4288C14.6699 41.4515 15.5903 42.3353 17.431 43.0804Z" fill="#FABE00"/>
<path d="M17.4525 41.8971C19.2933 42.6275 21.5139 42.9927 24.1143 42.9927C26.7147 42.9927 28.9353 42.6275 30.7761 41.8971C32.6168 41.1812 33.5372 40.3047 33.5372 39.2674C33.5372 38.2448 32.6168 37.3755 30.7761 36.6597C28.9353 35.9146 26.7147 35.5421 24.1143 35.5421C21.5139 35.5421 19.2933 35.9146 17.4525 36.6597C15.6118 37.3755 14.6914 38.2448 14.6914 39.2674C14.6914 40.3047 15.6118 41.1812 17.4525 41.8971Z" fill="#FA5058"/>
<path d="M14.6699 35.5421V39.1798H33.5376V35.5421H14.6699Z" fill="#FA5058"/>
<path d="M17.431 38.1279C19.2718 38.873 21.4997 39.2455 24.1147 39.2455C26.7152 39.2455 28.9357 38.873 30.7765 38.1279C32.6172 37.3975 33.5376 36.5282 33.5376 35.5202C33.5376 34.4683 32.6172 33.5845 30.7765 32.8686C28.9357 32.1528 26.7152 31.7949 24.1147 31.7949C21.4997 31.7949 19.2718 32.1528 17.431 32.8686C15.5903 33.5845 14.6699 34.4683 14.6699 35.5202C14.6699 36.5282 15.5903 37.3975 17.431 38.1279Z" fill="#FABE00"/>
<path d="M82.449 66.2432V66.024C82.3759 63.7742 80.075 61.8458 75.5462 60.2388C71.1196 58.6756 65.8165 57.8575 59.6368 57.7845H58.8918C58.8333 57.7845 58.7822 57.7845 58.7384 57.7845C52.5587 57.8575 47.2483 58.6756 42.8071 60.2388C38.2783 61.8458 35.9773 63.7742 35.9043 66.024V66.2432C35.9773 68.493 38.2783 70.4214 42.8071 72.0284C47.2483 73.5916 52.5587 74.4097 58.7384 74.4827C58.7822 74.4827 58.8333 74.4827 58.8918 74.4827C59.0817 74.4827 59.2789 74.4827 59.4834 74.4827C59.5273 74.4827 59.5784 74.4827 59.6368 74.4827C65.8165 74.4097 71.1196 73.5916 75.5462 72.0284C80.075 70.4214 82.3759 68.493 82.449 66.2432Z" fill="#007E8A"/>
<path d="M68.8684 17.0057V9.81821H40.2208V17.0057C40.1909 18.7523 39.5632 20.2516 38.3378 21.5036C38.0987 21.7509 37.8447 21.9828 37.5757 22.1992V22.2223C37.3067 22.4233 37.0527 22.6474 36.8136 22.8947C35.5732 24.1776 34.9381 25.7079 34.9082 27.4854V65.9035C34.968 67.8665 36.9107 69.5513 40.7363 70.9579C44.4723 72.3181 48.9481 73.0291 54.1635 73.0909C54.2083 73.0909 54.2532 73.0909 54.298 73.0909C54.4624 73.0909 54.6268 73.0909 54.7911 73.0909C54.836 73.0909 54.8808 73.0909 54.9256 73.0909C60.1411 73.0291 64.6168 72.3181 68.3528 70.9579C72.1784 69.5513 74.1212 67.8665 74.1809 65.9035V27.4854C74.151 25.7079 73.5159 24.1776 72.2756 22.8947C72.0365 22.6474 71.7824 22.4233 71.5134 22.2223V22.1992C71.2444 21.9828 70.9904 21.7509 70.7513 21.5036C69.5259 20.2516 68.8982 18.7523 68.8684 17.0057Z" fill="white"/>
<path d="M69.6737 10.2975V10.2098C69.6445 8.90962 68.1836 7.79202 65.291 6.85704C62.3838 5.92205 58.8776 5.45456 54.7724 5.45456C50.6526 5.45456 47.1318 5.92205 44.21 6.85704C41.3466 7.79202 39.9003 8.90962 39.8711 10.2098V10.2975C39.9003 11.5977 41.3466 12.708 44.21 13.6284C44.3707 13.6868 44.5387 13.7379 44.714 13.7818C47.5336 14.6291 50.8864 15.0528 54.7724 15.0528C58.6438 15.0528 61.9893 14.6291 64.8089 13.7818C64.9696 13.7379 65.1303 13.6868 65.291 13.6284C68.1836 12.708 69.6445 11.5977 69.6737 10.2975Z" fill="#F84F57"/>
<path d="M63.1871 12.2259C65.5245 11.5977 66.6933 10.8527 66.6933 9.99072C66.6933 9.12878 65.5245 8.38371 63.1871 7.75552C60.8642 7.14194 58.0666 6.83514 54.7941 6.83514C51.4924 6.83514 48.6802 7.14194 46.3573 7.75552C44.0345 8.38371 42.873 9.12878 42.873 9.99072C42.873 10.8527 44.0345 11.5977 46.3573 12.2259C48.6802 12.8395 51.4924 13.1463 54.7941 13.1463C58.0666 13.1463 60.8642 12.8395 63.1871 12.2259Z" fill="#FABE00"/>
<path d="M61.4775 10.8892V9.35519H47.8691V10.8892H61.4775Z" fill="#450064"/>
<path d="M35.3789 66.0241V66.1994C35.4373 68.0547 37.3365 69.6471 41.0765 70.9766C44.7288 72.2622 49.1042 72.9342 54.2028 72.9926C54.2466 72.9926 54.2904 72.9926 54.3343 72.9926C54.495 72.9926 54.6557 72.9926 54.8164 72.9926C54.8602 72.9926 54.904 72.9926 54.9478 72.9926C60.0464 72.9342 64.4219 72.2622 68.0742 70.9766C71.8141 69.6471 73.7133 68.0547 73.7717 66.1994V66.0241C73.7133 64.1687 71.8141 62.5763 68.0742 61.2469C64.4219 59.9613 60.0464 59.2892 54.9478 59.2308H54.3343C54.2904 59.2308 54.2466 59.2308 54.2028 59.2308C49.1042 59.2892 44.7288 59.9613 41.0765 61.2469C37.3365 62.5763 35.4373 64.1687 35.3789 66.0241Z" fill="#00CCBE"/>
<path d="M54.0045 40.9328C52.4559 42.4814 51.6816 44.3368 51.6816 46.4989C51.6816 48.6611 52.4559 50.5091 54.0045 52.0431C55.5531 53.5917 57.4011 54.3659 59.5487 54.3659C61.7254 54.3659 63.5808 53.5917 65.1147 52.0431C66.6341 50.5091 67.3938 48.6611 67.3938 46.4989C67.3938 44.3368 66.6341 42.4814 65.1147 40.9328C63.5808 39.4135 61.7254 38.6538 59.5487 38.6538C57.4011 38.6538 55.5531 39.4135 54.0045 40.9328Z" fill="#FABE00"/>
<path d="M37.1543 61.5317C37.1543 62.4667 37.9943 63.2629 39.6744 63.9203C41.3544 64.5777 43.3778 64.9064 45.7445 64.9064C48.1257 64.9064 50.1564 64.5777 51.8365 63.9203C53.5165 63.2629 54.3565 62.4667 54.3565 61.5317C54.3565 60.5967 53.5165 59.8005 51.8365 59.1431C50.1564 58.4711 48.1257 58.1351 45.7445 58.1351C43.3778 58.1351 41.3544 58.4711 39.6744 59.1431C37.9943 59.8005 37.1543 60.5967 37.1543 61.5317Z" fill="#FA5058"/>
<path d="M37.1309 58.1351V61.466H54.355V58.1351H37.1309Z" fill="#FA5058"/>
<path d="M37.1309 58.0913C37.1309 59.0263 37.9636 59.8298 39.629 60.5018C41.3091 61.1738 43.347 61.5098 45.7429 61.5098C48.1242 61.5098 50.1549 61.1738 51.835 60.5018C53.515 59.8298 54.355 59.0263 54.355 58.0913C54.355 57.1417 53.515 56.3455 51.835 55.7027C50.1549 55.0307 48.1242 54.6947 45.7429 54.6947C43.347 54.6947 41.3091 55.0307 39.629 55.7027C37.9636 56.3455 37.1309 57.1417 37.1309 58.0913Z" fill="#FABE00"/>
<path d="M69.9361 66.5938C71.6161 65.9364 72.4562 65.1402 72.4562 64.2052C72.4562 63.2702 71.6161 62.4667 69.9361 61.7947C68.256 61.1373 66.2254 60.8086 63.8441 60.8086C61.4774 60.8086 59.454 61.1373 57.774 61.7947C56.0939 62.4667 55.2539 63.2702 55.2539 64.2052C55.2539 65.1402 56.0939 65.9364 57.774 66.5938C59.454 67.2512 61.4774 67.5799 63.8441 67.5799C66.2254 67.5799 68.256 67.2512 69.9361 66.5938Z" fill="#FA5058"/>
<path d="M72.4566 64.0957V60.7867H55.2324V64.0957H72.4566Z" fill="#FA5058"/>
<path d="M69.9365 63.1753C71.6166 62.5032 72.4566 61.6997 72.4566 60.7648C72.4566 59.8152 71.6166 59.0044 69.9365 58.3323C68.2565 57.6749 66.2258 57.3462 63.8445 57.3462C61.4778 57.3462 59.4472 57.6749 57.7525 58.3323C56.0724 59.0044 55.2324 59.8152 55.2324 60.7648C55.2324 61.6997 56.0724 62.5032 57.7525 63.1753C59.4472 63.8327 61.4778 64.1614 63.8445 64.1614C66.2258 64.1614 68.2565 63.8327 69.9365 63.1753Z" fill="#FABE00"/>
<path d="M49.557 65.3009C47.1903 65.3009 45.1669 65.6369 43.4869 66.3089C41.8068 66.9663 40.9668 67.7699 40.9668 68.7194C40.9668 69.6544 41.8068 70.4506 43.4869 71.108C45.1669 71.7801 47.1903 72.1161 49.557 72.1161C51.9383 72.1161 53.9689 71.7801 55.649 71.108C57.329 70.4506 58.169 69.6544 58.169 68.7194C58.169 67.7699 57.329 66.9663 55.649 66.3089C53.9689 65.6369 51.9383 65.3009 49.557 65.3009Z" fill="#FA5058"/>
<path d="M40.9453 65.3009V68.6318H58.1695V65.3009H40.9453Z" fill="#FA5058"/>
<path d="M43.4654 67.6895C45.1454 68.3469 47.1761 68.6756 49.5574 68.6756C51.9387 68.6756 53.9694 68.3469 55.6494 67.6895C57.3295 67.0175 58.1695 66.214 58.1695 65.279C58.1695 64.3294 57.3295 63.5259 55.6494 62.8685C53.9694 62.2111 51.9387 61.8824 49.5574 61.8824C47.1761 61.8824 45.1454 62.2111 43.4654 62.8685C41.7853 63.5259 40.9453 64.3294 40.9453 65.279C40.9453 66.214 41.7853 67.0175 43.4654 67.6895Z" fill="#FABE00"/>
<path d="M43.5742 57.9159C43.5742 58.8509 44.4142 59.6471 46.0943 60.3045C47.7743 60.962 49.7977 61.2907 52.1644 61.2907C54.5457 61.2907 56.5764 60.962 58.2564 60.3045C59.9365 59.6471 60.7765 58.8509 60.7765 57.9159C60.7765 56.9664 59.9365 56.1702 58.2564 55.5274C56.5764 54.8553 54.5457 54.5193 52.1644 54.5193C49.7977 54.5193 47.7743 54.8553 46.0943 55.5274C44.4142 56.1702 43.5742 56.9664 43.5742 57.9159Z" fill="#FA5058"/>
<path d="M43.5527 57.8283H60.7769V54.5193H43.5527V57.8283Z" fill="#FA5058"/>
<path d="M43.5527 54.4536C43.5527 55.4032 44.3928 56.214 46.0728 56.886C47.7529 57.5581 49.7835 57.8941 52.1648 57.8941C54.5461 57.8941 56.5768 57.5581 58.2568 56.886C59.9369 56.214 60.7769 55.4032 60.7769 54.4536C60.7769 53.5186 59.9369 52.7224 58.2568 52.065C56.5768 51.393 54.5461 51.057 52.1648 51.057C49.7835 51.057 47.7529 51.393 46.0728 52.065C44.3928 52.7224 43.5527 53.5186 43.5527 54.4536Z" fill="#FABE00"/>
<path d="M39.4549 57.2367C39.9224 58.0548 41.04 58.347 42.8077 58.1132C44.6046 57.8795 46.533 57.1928 48.5929 56.0533C50.682 54.8846 52.3036 53.6063 53.4578 52.2184C54.6119 50.8306 54.9552 49.7203 54.4877 48.8875C54.0348 48.0694 52.9172 47.7772 51.1349 48.011C49.338 48.2447 47.4023 48.9387 45.3278 50.0928C43.2533 51.2469 41.639 52.5179 40.4849 53.9058C39.3454 55.2937 39.002 56.4039 39.4549 57.2367Z" fill="#FA5058"/>
<path d="M37.7891 54.2564L39.4107 57.1709L54.4654 48.8437L52.8438 45.9292L37.7891 54.2564Z" fill="#FA5058"/>
<path d="M49.4695 44.9869C47.6726 45.2207 45.7369 45.9219 43.6624 47.0906C41.5733 48.2301 39.959 49.5011 38.8195 50.9036C37.6654 52.3061 37.3147 53.4164 37.7676 54.2345C38.2205 55.0526 39.3527 55.3521 41.1642 55.133C42.9466 54.8992 44.875 54.2126 46.9495 53.0731C49.0386 51.9189 50.6602 50.6333 51.8143 49.2163C52.9392 47.8284 53.2752 46.7254 52.8223 45.9073C52.3694 45.0746 51.2518 44.7678 49.4695 44.9869Z" fill="#FABE00"/>
<path d="M65.0718 61.1373C66.7665 61.7947 67.9206 61.7728 68.5342 61.0716C69.1916 60.3849 69.1258 59.2381 68.3369 57.6311C67.548 56.0095 66.2771 54.3806 64.524 52.7444C62.8001 51.1373 61.0908 50.0051 59.3961 49.3477C57.7161 48.6903 56.5547 48.7122 55.9119 49.4135C55.2837 50.1293 55.364 51.2834 56.1529 52.8758C56.9272 54.4974 58.1836 56.1191 59.9221 57.7407C61.6752 59.3331 63.3917 60.4653 65.0718 61.1373Z" fill="#FA5058"/>
<path d="M68.5789 61.0277L70.8579 58.5953L58.2137 46.9153L55.9785 49.3477L68.5789 61.0277Z" fill="#FA5058"/>
<path d="M61.7185 46.8276C60.0385 46.1702 58.877 46.1848 58.2342 46.8714C57.5914 47.5581 57.6572 48.7341 58.4315 50.3995C59.2204 51.9919 60.4914 53.6062 62.2445 55.2425C63.9683 56.8641 65.6849 57.9963 67.3942 58.6391C69.0742 59.2819 70.2356 59.26 70.8785 58.5733C71.5213 57.8721 71.4555 56.718 70.6812 55.111C69.8923 53.4748 68.6213 51.8532 66.8682 50.2461C65.1444 48.6245 63.4278 47.485 61.7185 46.8276Z" fill="#FABE00"/>
<path d="M31.916 63.1752C30.8641 62.6201 29.7173 62.5251 28.4755 62.8904L10.3967 68.1716C9.76851 68.3615 9.4398 68.5733 9.41059 68.8071H9.38867V73.4966H9.41059C9.35215 73.745 9.5859 74.0006 10.1118 74.2636L31.8064 86.0093C32.8582 86.5791 34.0051 86.6814 35.2468 86.3161L53.3037 81.0349C53.9319 80.845 54.2752 80.6332 54.3337 80.3994V75.7099C54.3629 75.4762 54.1218 75.2132 53.6105 74.921L31.916 63.1752Z" fill="#450064"/>
<path d="M31.9164 63.1752C30.8645 62.6201 29.7177 62.5251 28.4759 62.8904L10.3971 68.1716C9.15534 68.5368 9.06038 69.0043 10.1122 69.574L31.8068 81.2979C32.8587 81.8822 34.0055 81.9918 35.2473 81.6266L53.3042 76.3235C54.5459 75.9582 54.6482 75.4907 53.611 74.921L31.9164 63.1752Z" fill="#450064"/>
<path d="M36.3653 65.5858L32.0483 63.2629L10.2441 69.6398L14.5611 71.9846L36.3653 65.5858Z" fill="#CCCCCC"/>
<path d="M37.7668 76.6522L35.685 77.2658C35.0715 77.4557 35.0276 77.6821 35.5536 77.9451L37.2847 78.8874C37.7961 79.1795 38.3585 79.238 38.9721 79.0627L41.0539 78.4491C41.6675 78.2592 41.7113 78.0254 41.1854 77.7479L39.4761 76.8056C38.9502 76.528 38.3804 76.4769 37.7668 76.6522Z" fill="white"/>
<path d="M32.8579 78.0985L30.798 78.6902C30.1699 78.8801 30.1187 79.1138 30.6447 79.3914L32.3758 80.3337C32.9018 80.6112 33.4788 80.6624 34.107 80.4871L36.1669 79.8735C36.7951 79.6982 36.8462 79.4644 36.3203 79.1723L34.5891 78.23C34.0632 77.9524 33.4861 77.9086 32.8579 78.0985Z" fill="white"/>
<path d="M41.295 72.883L43.0481 73.8253C43.1212 73.8692 43.2015 73.9057 43.2892 73.9349C43.3622 73.9933 43.4426 74.0445 43.5302 74.0883L45.2614 75.0306C45.276 75.0306 45.2906 75.0379 45.3052 75.0525C45.3199 75.0671 45.3418 75.0744 45.371 75.0744L47.1022 76.0167C47.6281 76.3089 48.1979 76.36 48.8114 76.1701L50.8713 75.5565C51.4995 75.3812 51.558 75.1474 51.0466 74.8553L49.3155 73.913C49.2862 73.913 49.2643 73.9057 49.2497 73.8911C49.2351 73.8765 49.2132 73.8692 49.184 73.8692L47.4747 72.9269C47.3724 72.883 47.2702 72.8392 47.1679 72.7954C47.1241 72.7662 47.0583 72.7223 46.9707 72.6639L45.2395 71.7216C44.7136 71.4294 44.1365 71.3783 43.5083 71.5682L41.4484 72.1818C40.8202 72.3571 40.7691 72.5909 41.295 72.883Z" fill="#FABE00"/>
<path d="M39.3013 69.2892L37.2414 69.9028C36.6132 70.0781 36.5621 70.3118 37.088 70.604L38.8192 71.5463C39.3451 71.8239 39.9222 71.8677 40.5504 71.6778L42.6103 71.0861C43.2385 70.8962 43.2896 70.6625 42.7637 70.3849L41.0106 69.4426C40.4992 69.165 39.9295 69.1139 39.3013 69.2892Z" fill="white"/>
<path d="M35.2036 67.0759L33.1438 67.6895C32.5156 67.8648 32.4644 68.0986 32.9904 68.3907L34.7215 69.333C35.2475 69.6106 35.8245 69.6544 36.4527 69.4645L38.5126 68.8509C39.1408 68.6756 39.1919 68.4492 38.666 68.1716L36.9129 67.2293C36.4016 66.9517 35.8318 66.9006 35.2036 67.0759Z" fill="white"/>
<path d="M42.6766 75.2059L40.6386 75.8195C40.0104 75.9948 39.952 76.2212 40.4633 76.4988L42.1945 77.4411C42.7204 77.7333 43.2975 77.7844 43.9257 77.5945L45.9856 77.0028C46.6137 76.8129 46.6649 76.5719 46.139 76.2797L44.4078 75.3593C43.8818 75.0817 43.3048 75.0306 42.6766 75.2059Z" fill="white"/>
<path d="M38.5572 72.9707L36.4973 73.5843C35.8691 73.7742 35.8179 74.0007 36.3439 74.2636L38.0531 75.2059C38.5937 75.4981 39.178 75.5492 39.8062 75.3593L41.8661 74.7676C42.4943 74.5777 42.5381 74.3367 41.9976 74.0445L40.2664 73.1241C39.7551 72.8465 39.1853 72.7954 38.5572 72.9707Z" fill="white"/>
<path d="M34.4361 70.7355L32.3762 71.349C31.748 71.539 31.6968 71.7727 32.2228 72.0503L33.954 72.9707C34.4653 73.2628 35.035 73.314 35.6632 73.1241L37.7231 72.5324C38.3513 72.3425 38.4024 72.1014 37.8765 71.8092L36.1672 70.8889C35.6413 70.6113 35.0643 70.5601 34.4361 70.7355Z" fill="white"/>
<path d="M30.2954 68.5003L28.2355 69.1139C27.6074 69.3038 27.5562 69.5375 28.0822 69.8151L29.8352 70.7574C30.3466 71.035 30.9163 71.0788 31.5445 70.8889L33.6044 70.2972C34.2326 70.1073 34.2837 69.8736 33.7578 69.596L32.0266 68.6537C31.5007 68.3761 30.9236 68.325 30.2954 68.5003Z" fill="#FABE00"/>
<path d="M33.6689 74.417L31.5871 75.0086C30.9589 75.1986 30.9078 75.4323 31.4337 75.7099L33.1649 76.6522C33.6908 76.9297 34.2679 76.9809 34.8961 76.8056L36.9779 76.192C37.5915 76.0021 37.6353 75.7683 37.1094 75.4907L35.3782 74.5485C34.8523 74.2709 34.2825 74.2271 33.6689 74.417Z" fill="white"/>
<path d="M29.5498 72.1818L27.468 72.7735C26.8398 72.9634 26.7886 73.2044 27.3146 73.4966L29.0458 74.417C29.5717 74.6946 30.1487 74.7457 30.7769 74.5704L32.8368 73.9568C33.4504 73.7669 33.5015 73.5332 32.9902 73.2556L31.259 72.3352C30.7331 72.043 30.1634 71.9919 29.5498 72.1818Z" fill="white"/>
<path d="M28.7611 75.8414L26.7012 76.455C26.0877 76.6303 26.0365 76.8567 26.5478 77.1343L28.279 78.0766C28.8196 78.3687 29.4039 78.4199 30.0321 78.23L32.092 77.6164C32.7056 77.4411 32.7494 77.2073 32.2235 76.9151L30.4923 75.9729C29.9664 75.6953 29.3893 75.6515 28.7611 75.8414Z" fill="white"/>
<path d="M24.6633 73.6062L22.6035 74.2198C21.9753 74.3951 21.9168 74.6288 22.4281 74.921L24.1593 75.8414C24.6853 76.1336 25.2623 76.1847 25.8905 75.9948L27.9504 75.3812C28.5786 75.2059 28.6297 74.9721 28.1038 74.68L26.3726 73.7596C25.8467 73.4674 25.2769 73.4163 24.6633 73.6062Z" fill="white"/>
<path d="M27.118 70.1C26.5921 69.8078 26.0223 69.7567 25.4088 69.9466L18.4621 71.9846C17.8339 72.1599 17.7828 72.3936 18.3087 72.6858L20.0399 73.6281C20.5658 73.9057 21.1429 73.9495 21.7711 73.7596L28.7396 71.7216C29.3532 71.5317 29.3971 71.3052 28.8711 71.0423L27.118 70.1Z" fill="#FA5058"/>
<path d="M61.7846 84.7822C63.6253 85.5126 65.8459 85.8778 68.4463 85.8778C71.0468 85.8778 73.2673 85.5126 75.1081 84.7822C76.9489 84.0663 77.8692 83.1898 77.8692 82.1525C77.8692 81.1299 76.9489 80.2606 75.1081 79.5448C73.2673 78.7997 71.0468 78.4272 68.4463 78.4272C65.8459 78.4272 63.6253 78.7997 61.7846 79.5448C59.9438 80.2606 59.0234 81.1299 59.0234 82.1525C59.0234 83.1898 59.9438 84.0663 61.7846 84.7822Z" fill="#FA5058"/>
<path d="M59.002 78.4272V82.0648H77.8697V78.4272H59.002Z" fill="#FA5058"/>
<path d="M61.7631 81.013C63.6038 81.7581 65.8317 82.1306 68.4468 82.1306C71.0472 82.1306 73.2678 81.7581 75.1085 81.013C76.9493 80.2825 77.8697 79.4133 77.8697 78.4053C77.8697 77.3534 76.9493 76.4695 75.1085 75.7537C73.2678 75.0379 71.0472 74.6799 68.4468 74.6799C65.8317 74.6799 63.6038 75.0379 61.7631 75.7537C59.9223 76.4695 59.002 77.3534 59.002 78.4053C59.002 79.4133 59.9223 80.2825 61.7631 81.013Z" fill="#FABE00"/>
</svg>
