<svg xmlns="http://www.w3.org/2000/svg" class="ccl-42af0e785123d346" style="width:34px;height:16px" width="34" height="16" viewBox="0 0 34 16" role="img" aria-label="Deliveroo Plus" focusable="false"><linearGradient id="plusLogoGradient" gradientUnits="userSpaceOnUse" x1="0" y1="8" x2="34" y2="8"><stop offset="0" stop-color="#b9c3c4"></stop><stop offset=".707" stop-color="#b9c3c4"></stop></linearGradient><path d="M31 0H3C1.3 0 0 1.3 0 3v10c0 1.7 1.3 3 3 3h1V6h1.4v1c.6-.7 1.4-1.1 2.3-1.1 1.9 0 3.4 1.5 3.4 3.6s-1.4 3.6-3.4 3.6c-.9 0-1.8-.4-2.3-1.2v4H31c1.7 0 3-1.3 3-3V3c0-1.7-1.3-3-3-3zM14 13h-1.4V2.5H14V13zm8.2 0h-1.4v-1.1c-.4.8-1.2 1.3-2.1 1.3-1.5 0-2.6-1-2.6-3.1V6h1.4v3.8c0 1.4.6 2.1 1.7 2.1 1 0 1.7-.7 1.7-2.1V6h1.4v7zm4.6.1c-1.7 0-3-.9-3-2.4h1.5c0 .9.7 1.3 1.6 1.3.9 0 1.4-.3 1.4-1 0-1.7-4.2-.3-4.2-3.2 0-1.3 1.2-2.1 2.7-2.1 1.6 0 2.9 1 2.9 2.3h-1.5c0-.7-.6-1.2-1.4-1.2-.8 0-1.3.3-1.3.9 0 1.6 4.3.3 4.3 3.2-.2 1.4-1.3 2.2-3 2.2zM7.6 11.9c1.2 0 2.1-.9 2.1-2.4s-.9-2.4-2.1-2.4c-1.2 0-2.1.9-2.1 2.4s.8 2.4 2.1 2.4z" fill="url(#plusLogoGradient)"></path></svg>