<svg width="110" height="24" fill="none" xmlns="http://www.w3.org/2000/svg"><path fill-rule="evenodd" clip-rule="evenodd" d="M30.205 17.636h1.877l-.311-1.457V7.49h-1.797v3.962a2.789 2.789 0 00-2.163-.994c-1.796 0-3.189 1.485-3.189 3.663 0 2.18 1.391 3.663 3.19 3.663.892 0 1.662-.38 2.202-1.034l.19.887zm35.525-5.23c.364 0 .702.095 1.014.314l.85-1.921a2.45 2.45 0 00-1.296-.355c-.811 0-1.487.368-1.919 1.05l-.189-.886H62.34l.298 1.376v5.652h1.797v-4.48c.241-.465.702-.75 1.296-.75zM71 15.893c-1.04 0-1.81-.694-1.81-1.77 0-1.089.77-1.77 1.81-1.77 1.053 0 1.811.681 1.811 1.77 0 1.076-.757 1.77-1.812 1.77zm-44.632-1.77c0-1.089.77-1.77 1.81-1.77 1.055 0 1.811.681 1.811 1.77 0 1.076-.756 1.77-1.811 1.77-1.04 0-1.81-.694-1.81-1.77zm52.59 1.77c-1.04 0-1.81-.694-1.81-1.77 0-1.089.77-1.77 1.81-1.77 1.053 0 1.812.681 1.812 1.77 0 1.076-.757 1.77-1.812 1.77zm-42.51-3.65c.932 0 1.54.436 1.73 1.24h-3.46c.203-.804.81-1.24 1.73-1.24zm21.497 0c.933 0 1.54.436 1.73 1.24h-3.458c.203-.804.811-1.24 1.728-1.24zm-8.768 5.394h2.891l1.878-7.028h-1.959L50.61 16.3l-1.378-5.692h-1.933l1.878 7.028zm-4.635 0h1.797v-7.028h-1.797v7.028zm-7.819.13c1 0 1.986-.271 2.81-.804l-.689-1.553c-.649.34-1.364.545-2.094.545-.946 0-1.608-.368-1.892-1.049h5.055c.054-.258.08-.517.08-.83 0-2.18-1.5-3.637-3.513-3.637-2.027 0-3.512 1.47-3.512 3.663 0 2.235 1.472 3.665 3.755 3.665zm45.789-3.644c0-2.18-1.514-3.663-3.554-3.663s-3.554 1.485-3.554 3.663c0 2.18 1.514 3.663 3.554 3.663s3.554-1.485 3.554-3.663zm-24.323 3.663c1 0 1.985-.272 2.81-.804l-.689-1.553c-.65.34-1.364.545-2.095.545-.945 0-1.608-.368-1.89-1.049h5.053a3.88 3.88 0 00.081-.83c0-2.18-1.5-3.637-3.514-3.637-2.027 0-3.514 1.47-3.514 3.663.002 2.235 1.474 3.665 3.758 3.665zm12.81 0c2.04 0 3.554-1.485 3.554-3.663 0-2.18-1.513-3.663-3.553-3.663s-3.554 1.485-3.554 3.663 1.513 3.663 3.553 3.663zm-29.863-.149h1.796V7.488h-1.797v10.148zm4.312-7.994c.634 0 1.121-.491 1.121-1.144 0-.653-.487-1.144-1.121-1.144-.65 0-1.136.491-1.136 1.144 0 .653.487 1.144 1.136 1.144zM14.572 1.092l-1.028 9.739-1.755-8.21-5.504 1.163 1.756 8.21L.108 13.67l1.403 6.558 13.95 2.948 3.19-7.126L20.17 1.677l-5.598-.585zM10.166 15.22c-.29.263-.668.238-1.072.104-.404-.132-.584-.617-.43-1.204.113-.436.649-.5.917-.504a.688.688 0 01.294.06c.189.086.51.269.576.546.092.4.001.736-.285.998zm4.038.451c-.21.36-.758.41-1.298.146-.364-.178-.363-.629-.323-.904a.838.838 0 01.176-.41c.13-.164.347-.377.598-.383.408-.011.759.172.957.5.198.329.1.69-.11 1.052z" fill="#450063"/><path fill-rule="evenodd" clip-rule="evenodd" d="M92.905 6.986v10.656h1.136V6.986h-1.136zm-7.459 14.206v-4.83c.568.882 1.463 1.421 2.53 1.421 1.947 0 3.41-1.52 3.41-3.693 0-2.172-1.465-3.693-3.41-3.693-1.067 0-1.962.54-2.53 1.42v-1.279H84.31v10.654h1.136zm2.4-9.76c1.365 0 2.401 1.067 2.401 2.658 0 1.59-1.036 2.655-2.4 2.657-1.365 0-2.4-1.066-2.4-2.657s1.035-2.657 2.4-2.657zm13.157 4.93c-.44.951-1.265 1.421-2.244 1.421-1.55 0-2.714-.994-2.714-3.225v-4.02h1.136v3.778c0 1.663.725 2.473 1.918 2.473 1.179 0 1.904-.81 1.904-2.473v-3.778h1.136v7.104h-1.136v-1.28zm2.784-.951c0 1.52 1.292 2.372 3.012 2.372 1.634 0 2.785-.766 2.783-2.102 0-1.61-1.403-1.892-2.643-2.14-.981-.197-1.86-.373-1.86-1.17 0-.668.612-1.067 1.506-1.067.953 0 1.663.568 1.663 1.322h1.18c0-1.265-1.208-2.231-2.843-2.231-1.506 0-2.642.768-2.642 2.017 0 1.558 1.344 1.822 2.559 2.06 1.002.197 1.916.377 1.916 1.25 0 .769-.612 1.152-1.619 1.152-1.036 0-1.833-.483-1.833-1.463h-1.179z" fill="#00CCBD"/></svg>