<svg height="24" width="24" viewBox="0 0 24 24" role="presentation" focusable="false" class="ccl-2608038983f5b413 ccl-ab78be2f3c0b8a03 ccl-728d4bf1d552a771" xmlns="http://www.w3.org/2000/svg"><path d="M15.55 11.8642L13.8012 13.6129L19.749 20.3375L18.2509 21.6625L12.3844 15.0298L5.70707 21.7071L4.29286 20.2929L11.0568 13.5289L9.67929 12.112L6.93679 14.8345L2.99365 8.15994L4.35279 2.93054L12.4737 12.112L14.1358 10.45L12.7929 9.1071L12.8008 7.68498L17.3008 3.28498L18.6991 4.715L14.9222 8.40798L15.55 9.03578L19.2929 5.29288L20.7071 6.7071L16.9642 10.45L17.5079 10.9937L21.3008 7.28498L22.6991 8.715L18.1991 13.115L16.7929 13.1071L15.55 11.8642ZM5.34352 7.06944L5.14324 7.84003L7.32097 11.6642L8.40646 10.6124L5.34352 7.06944Z"></path></svg>