<svg height="24" width="24" viewBox="0 0 24 24" role="presentation" focusable="false" class="ccl-2608038983f5b413 ccl-ab78be2f3c0b8a03 ccl-728d4bf1d552a771" xmlns="http://www.w3.org/2000/svg"><path d="M18.8443 7.23358C18.1403 6.4475 17.1721 6 16.1776 6C15.1129 6 14.1447 6.4475 13.4221 7.23358L11.9998 8.84671L10.5776 7.23358C9.85475 6.4475 8.88652 6 7.82206 6C6.82736 6 5.85904 6.4475 5.15539 7.23358C3.62294 8.94159 3.62294 11.6776 5.15539 13.4015C7.22501 15.6889 10.4114 17.9413 11.9998 19C13.5883 17.9396 16.7801 15.6825 18.8443 13.4015C20.3765 11.6776 20.3765 8.94159 18.8443 7.23358ZM20.3391 14.7302C18.4992 16.7635 15.8729 18.8191 13.1103 20.6634L12.0007 21.4041L10.8906 20.6642C8.13518 18.8277 5.50573 16.7696 3.67233 14.7433C1.45351 12.2475 1.45351 8.36473 3.66521 5.89965C4.74197 4.69675 6.24856 4 7.82206 4C9.41796 4 10.8999 4.65822 11.9998 5.82612C13.0995 4.65819 14.5815 4 16.1776 4C17.7505 4 19.2566 4.69641 20.3336 5.89868C22.5459 8.36546 22.5457 12.2476 20.3391 14.7302Z"></path></svg>