<svg height="24" width="24" viewBox="0 0 24 24" role="presentation" focusable="false" class="ccl-2608038983f5b413 ccl-24025c233c77af94 ccl-4475ede65a9c319d" xmlns="http://www.w3.org/2000/svg"><path d="M12 2C17.5228 2 22 6.47717 22 12C22 17.5228 17.5228 22 12 22C6.47717 22 2 17.5228 2 12C2 6.47717 6.47717 2 12 2ZM12 20C16.4112 20 20 16.4112 20 12C20 7.5888 16.4112 4 12 4C7.5888 4 4 7.5888 4 12C4 16.4112 7.5888 20 12 20ZM11 17V10H13V17H11ZM11.9934 6.69997C12.7444 6.69997 13.2846 7.22697 13.2846 7.91205C13.2846 8.59722 12.7444 9.13738 11.9934 9.13738C11.2556 9.13738 10.7155 8.59722 10.7155 7.91205C10.7155 7.22697 11.2556 6.69997 11.9934 6.69997Z"></path></svg>