<svg height="24" width="24" viewBox="0 0 24 24" role="presentation" focusable="false" class="ccl-2608038983f5b413 ccl-ab78be2f3c0b8a03 ccl-4475ede65a9c319d" xmlns="http://www.w3.org/2000/svg"><path d="M10.5 17C14.0841 17 17 14.0841 17 10.5C17 6.91592 14.0841 4 10.5 4C6.91592 4 4 6.91592 4 10.5C4 14.0841 6.91592 17 10.5 17ZM10.5 2C15.1944 2 19 5.80558 19 10.5C19 12.3368 18.4173 14.0374 17.4268 15.4273L22 20.0049L20.0049 22L15.4272 17.4269C14.0373 18.4173 12.3368 19 10.5 19C5.80558 19 2 15.1944 2 10.5C2 5.80558 5.80558 2 10.5 2Z"></path></svg>