<svg height="24" width="24" viewBox="0 0 24 24" role="presentation" focusable="false" class="ccl-2608038983f5b413 ccl-24025c233c77af94 ccl-4475ede65a9c319d" xmlns="http://www.w3.org/2000/svg"><path d="M12 3C9.23858 3 7 5.23858 7 8C7 9.93198 8.09575 11.608 9.69967 12.4406C8.35657 12.9598 7.19555 13.8814 6.30036 14.8961C4.94197 16.4359 4 18.4121 4 20L5 21H19L20 20C20 18.4121 19.058 16.4359 17.6996 14.8961C16.8044 13.8814 15.6434 12.9598 14.3003 12.4406C15.9043 11.608 17 9.93198 17 8C17 5.23858 14.7614 3 12 3ZM16.1999 16.2192C17.0137 17.1417 17.5637 18.1562 17.8249 19H6.17507C6.43633 18.1562 6.98632 17.1417 7.80014 16.2192C8.9593 14.9053 10.4584 14 12 14C13.5416 14 15.0407 14.9053 16.1999 16.2192ZM12 11C10.3431 11 9 9.65685 9 8C9 6.34315 10.3431 5 12 5C13.6569 5 15 6.34315 15 8C15 9.65685 13.6569 11 12 11Z"></path></svg>