<svg height="24" width="24" viewBox="0 0 24 24" role="presentation" focusable="false" class="ccl-2608038983f5b413 ccl-ab78be2f3c0b8a03 ccl-728d4bf1d552a771" xmlns="http://www.w3.org/2000/svg"><path d="M22 4H2V10C3.10458 10 4 10.8954 4 12C4 13.1046 3.10458 14 2 14V20H22V14C20.8954 14 20 13.1046 20 12C20 10.8954 20.8954 10 22 10V4ZM20 6V8.53683C18.8053 9.22942 18 10.5224 18 12C18 13.4776 18.8053 14.7706 20 15.4632V18H4V15.4632C5.19475 14.7706 6 13.4776 6 12C6 10.5224 5.19475 9.22942 4 8.53683V6H20ZM12 7.8L10.8 11H8L10 13L9.2 15.8L12 14.2L14.8 15.8L14 13L16 11H13.2L12 7.8Z"></path></svg>