<?xml version="1.0" standalone="no"?>
<svg xmlns:xlink="http://www.w3.org/1999/xlink" id="wave" style="transform:rotate(180deg); transition: 0.3s" viewBox="0 0 1440 490" version="1.1" xmlns="http://www.w3.org/2000/svg"><defs><linearGradient id="sw-gradient-0" x1="0" x2="0" y1="1" y2="0"><stop stop-color="rgba(243, 106, 62, 1)" offset="0%"/><stop stop-color="rgba(255, 179, 11, 1)" offset="100%"/></linearGradient></defs><path style="transform:translate(0, 0px); opacity:1" fill="url(#sw-gradient-0)" d="M0,441L34.3,441C68.6,441,137,441,206,441C274.3,441,343,441,411,408.3C480,376,549,310,617,253.2C685.7,196,754,147,823,130.7C891.4,114,960,131,1029,114.3C1097.1,98,1166,49,1234,81.7C1302.9,114,1371,229,1440,294C1508.6,359,1577,376,1646,318.5C1714.3,261,1783,131,1851,73.5C1920,16,1989,33,2057,40.8C2125.7,49,2194,49,2263,57.2C2331.4,65,2400,82,2469,138.8C2537.1,196,2606,294,2674,302.2C2742.9,310,2811,229,2880,179.7C2948.6,131,3017,114,3086,130.7C3154.3,147,3223,196,3291,187.8C3360,180,3429,114,3497,73.5C3565.7,33,3634,16,3703,40.8C3771.4,65,3840,131,3909,196C3977.1,261,4046,327,4114,359.3C4182.9,392,4251,392,4320,326.7C4388.6,261,4457,131,4526,114.3C4594.3,98,4663,196,4731,228.7C4800,261,4869,229,4903,212.3L4937.1,196L4937.1,490L4902.9,490C4868.6,490,4800,490,4731,490C4662.9,490,4594,490,4526,490C4457.1,490,4389,490,4320,490C4251.4,490,4183,490,4114,490C4045.7,490,3977,490,3909,490C3840,490,3771,490,3703,490C3634.3,490,3566,490,3497,490C3428.6,490,3360,490,3291,490C3222.9,490,3154,490,3086,490C3017.1,490,2949,490,2880,490C2811.4,490,2743,490,2674,490C2605.7,490,2537,490,2469,490C2400,490,2331,490,2263,490C2194.3,490,2126,490,2057,490C1988.6,490,1920,490,1851,490C1782.9,490,1714,490,1646,490C1577.1,490,1509,490,1440,490C1371.4,490,1303,490,1234,490C1165.7,490,1097,490,1029,490C960,490,891,490,823,490C754.3,490,686,490,617,490C548.6,490,480,490,411,490C342.9,490,274,490,206,490C137.1,490,69,490,34,490L0,490Z"/></svg>