<?xml version="1.0" standalone="no"?>
<svg xmlns:xlink="http://www.w3.org/1999/xlink" id="wave" style="transform:rotate(180deg); transition: 0.3s" viewBox="0 0 1440 200" version="1.1" xmlns="http://www.w3.org/2000/svg"><defs><linearGradient id="sw-gradient-0" x1="0" x2="0" y1="1" y2="0"><stop stop-color="rgba(0, 206, 189, 1)" offset="0%"/><stop stop-color="rgba(0, 206, 189, 1)" offset="100%"/></linearGradient></defs><path style="transform:translate(0, 0px); opacity:1" fill="url(#sw-gradient-0)" d="M0,20L720,80L1440,160L2160,20L2880,120L3600,20L4320,60L5040,80L5760,180L6480,40L7200,100L7920,20L8640,80L9360,80L10080,40L10800,60L11520,60L12240,160L12960,140L13680,140L14400,60L15120,20L15840,40L16560,140L17280,120L17280,200L16560,200L15840,200L15120,200L14400,200L13680,200L12960,200L12240,200L11520,200L10800,200L10080,200L9360,200L8640,200L7920,200L7200,200L6480,200L5760,200L5040,200L4320,200L3600,200L2880,200L2160,200L1440,200L720,200L0,200Z"/></svg>